<svg width="48" height="48" viewBox="0 0 48 48" fill="none" xmlns="http://www.w3.org/2000/svg">
<path d="M43 43H5L8 22H40L43 43ZM33 22L24 8L27 22H33ZM45 22L24 8L39 22H45ZM15 22H21L24 8L15 22ZM3 22H9L24 8L3 22Z" fill="#FF3D00"/>
<path d="M9 43L13 22H17L14 43H9ZM39 43L35 22H31L34 43H39ZM27 22L24 8L21 22H27ZM39 22L24 8L33 22H39ZM9 22H15L24 8L9 22Z" fill="white"/>
<path d="M40.358 24.506C40.344 24.497 40.328 24.49 40.315 24.481C40.326 24.461 40.335 24.439 40.346 24.419L40 22H37C37 22.907 37.261 23.747 37.685 24.481C37.205 24.808 36.625 25 36 25C35.375 25 34.795 24.808 34.315 24.481C34.739 23.747 35 22.907 35 22H31C31 22.907 31.261 23.747 31.685 24.481C31.205 24.808 30.625 25 30 25C29.375 25 28.795 24.808 28.315 24.481C28.739 23.747 29 22.907 29 22H25C25 22.907 25.261 23.747 25.685 24.481C25.205 24.808 24.625 25 24 25C23.375 25 22.795 24.808 22.315 24.481C22.739 23.747 23 22.907 23 22H19C19 22.907 19.261 23.747 19.685 24.481C19.205 24.808 18.625 25 18 25C17.375 25 16.795 24.808 16.315 24.481C16.739 23.747 17 22.907 17 22H13C13 22.907 13.261 23.747 13.685 24.481C13.205 24.808 12.625 25 12 25C11.375 25 10.795 24.808 10.315 24.481C10.739 23.747 11 22.907 11 22H8L7.654 24.42C7.665 24.44 7.673 24.462 7.685 24.482C7.671 24.491 7.656 24.498 7.642 24.507L7.314 26.803C7.929 26.628 8.502 26.352 9 25.975C9.838 26.609 10.87 27 12 27C13.13 27 14.162 26.609 15 25.975C15.838 26.609 16.87 27 18 27C19.13 27 20.162 26.609 21 25.975C21.838 26.609 22.87 27 24 27C25.13 27 26.162 26.609 27 25.975C27.838 26.609 28.87 27 30 27C31.13 27 32.162 26.609 33 25.975C33.838 26.609 34.87 27 36 27C37.13 27 38.162 26.609 39 25.975C39.498 26.352 40.071 26.629 40.686 26.803L40.358 24.506Z" fill="#DD2C00"/>
<path d="M20 43L24 22L28 43H20Z" fill="#B71C1C"/>
<path d="M24.934 26.901L24.561 24.941C24.378 24.976 24.192 25 24 25C23.808 25 23.622 24.976 23.44 24.941L23.067 26.901C23.369 26.961 23.679 27 24 27C24.321 27 24.631 26.961 24.934 26.901Z" fill="#880E4F"/>
<path d="M35.565 24.967C35.107 24.9 34.681 24.731 34.315 24.481C34.739 23.747 35 22.907 35 22H31L31.188 23.319C31.306 23.729 31.475 24.118 31.685 24.481C31.588 24.547 31.484 24.603 31.379 24.658L31.67 26.698C32.15 26.522 32.598 26.279 32.999 25.975C33.825 26.6 34.84 26.985 35.951 26.996L35.565 24.967Z" fill="#B0BEC5"/>
<path d="M16.315 24.481C16.525 24.118 16.694 23.729 16.812 23.319L17 22H13C13 22.907 13.261 23.747 13.685 24.481C13.318 24.731 12.893 24.9 12.435 24.967L12.049 26.996C13.16 26.985 14.175 26.6 15.001 25.975C15.402 26.279 15.85 26.522 16.33 26.698L16.621 24.658C16.516 24.604 16.412 24.547 16.315 24.481Z" fill="#B0BEC5"/>
<path d="M24 4V8L31 6L24 4Z" fill="#90CAF9"/>
<path d="M27 22H33C33 23.656 31.657 25 30 25C28.343 25 27 23.656 27 22ZM36 25C37.657 25 39 23.656 39 22H33C33 23.656 34.343 25 36 25ZM42 25C43.657 25 45 23.656 45 22H39C39 23.656 40.343 25 42 25ZM24 25C25.657 25 27 23.656 27 22H21C21 23.656 22.343 25 24 25ZM6 25C7.657 25 9 23.656 9 22H3C3 23.656 4.343 25 6 25ZM18 25C19.657 25 21 23.656 21 22H15C15 23.656 16.343 25 18 25ZM12 25C13.657 25 15 23.656 15 22H9C9 23.656 10.343 25 12 25Z" fill="#FFD600"/>
</svg>
