<svg width="48" height="48" viewBox="0 0 48 48" fill="none" xmlns="http://www.w3.org/2000/svg">
<path d="M24.64 4C16.04 4 6.20996 8.954 6.20996 22.947C6.20996 33.108 13.843 44 25.52 44C25.524 44 25.689 44 25.695 44C30.08 43.921 34.8 41.082 34.8 35.041C34.8 33.884 34.369 32.882 33.991 31.999C33.889 31.766 33.792 31.537 33.703 31.305C32.839 29.13 33.792 28.334 36.032 26.74C38.569 24.934 42.045 22.462 42 15.921C42 12.032 37.757 4 24.64 4ZM25.2 39.2C22.959 39.2 21.199 37.44 21.199 35.201C21.199 32.96 22.959 31.2 25.2 31.2C27.438 31.2 29.198 32.96 29.198 35.201C29.198 37.44 27.439 39.2 25.2 39.2Z" fill="#FFC107"/>
<path d="M34.5 20C36.433 20 38 18.433 38 16.5C38 14.567 36.433 13 34.5 13C32.567 13 31 14.567 31 16.5C31 18.433 32.567 20 34.5 20Z" fill="#9C27B0"/>
<path d="M25.5 14C27.433 14 29 12.433 29 10.5C29 8.567 27.433 7 25.5 7C23.567 7 22 8.567 22 10.5C22 12.433 23.567 14 25.5 14Z" fill="#2196F3"/>
<path d="M15.5 19C17.433 19 19 17.433 19 15.5C19 13.567 17.433 12 15.5 12C13.567 12 12 13.567 12 15.5C12 17.433 13.567 19 15.5 19Z" fill="#4CAF50"/>
<path d="M14.5 30C16.433 30 18 28.433 18 26.5C18 24.567 16.433 23 14.5 23C12.567 23 11 24.567 11 26.5C11 28.433 12.567 30 14.5 30Z" fill="#FF3D00"/>
</svg>
