<svg width="48" height="48" viewBox="0 0 48 48" fill="none" xmlns="http://www.w3.org/2000/svg">
<path d="M35 7H13V23H35V7Z" fill="#661C1C"/>
<path d="M39 43H9C6.8 43 5 41.2 5 39V23H43V39C43 41.2 41.2 43 39 43Z" fill="#607D8B"/>
<path d="M43 23V9C43 6.8 41.2 5 39 5H9C6.8 5 5 6.8 5 9V23H18.6C18.6 23 21.9 19.5 24 7.4C25.8 19.5 29.4 23 29.4 23H43Z" fill="#B71C1C"/>
<path d="M20 31C21.6569 31 23 29.6569 23 28C23 26.3431 21.6569 25 20 25C18.3431 25 17 26.3431 17 28C17 29.6569 18.3431 31 20 31Z" fill="#FFA726"/>
<path d="M12 31C13.6569 31 15 29.6569 15 28C15 26.3431 13.6569 25 12 25C10.3431 25 9 26.3431 9 28C9 29.6569 10.3431 31 12 31Z" fill="#FFA726"/>
<path d="M36 31C37.6569 31 39 29.6569 39 28C39 26.3431 37.6569 25 36 25C34.3431 25 33 26.3431 33 28C33 29.6569 34.3431 31 36 31Z" fill="#FFA726"/>
<path d="M28 31C29.6569 31 31 29.6569 31 28C31 26.3431 29.6569 25 28 25C26.3431 25 25 26.3431 25 28C25 29.6569 26.3431 31 28 31Z" fill="#FFA726"/>
<path d="M24 41C26.2091 41 28 39.2091 28 37C28 34.7909 26.2091 33 24 33C21.7909 33 20 34.7909 20 37C20 39.2091 21.7909 41 24 41Z" fill="#FFB74D"/>
<path d="M14 41C16.2091 41 18 39.2091 18 37C18 34.7909 16.2091 33 14 33C11.7909 33 10 34.7909 10 37C10 39.2091 11.7909 41 14 41Z" fill="#FFB74D"/>
<path d="M34 41C36.2091 41 38 39.2091 38 37C38 34.7909 36.2091 33 34 33C31.7909 33 30 34.7909 30 37C30 39.2091 31.7909 41 34 41Z" fill="#FFB74D"/>
<path d="M36.2 23C36.2 23 31.1 17.9 28 6.29999C29.1 16.8 33 23 33 23H36.2Z" fill="#E53935"/>
<path d="M43 23C43 23 37.9 20.9 34.8 9.29999C35.9 19.7 38.8 23 38.8 23H43Z" fill="#E53935"/>
<path d="M11.8 23C11.8 23 16.9 17.9 20 6.29999C18.9 16.8 15 23 15 23H11.8Z" fill="#E53935"/>
<path d="M5 23C5 23 10.1 20.9 13.2 9.29999C12.1 19.7 9.2 23 9.2 23H5Z" fill="#E53935"/>
</svg>
