<svg width="48" height="48" viewBox="0 0 48 48" fill="none" xmlns="http://www.w3.org/2000/svg">
<path d="M12 32V42H9V32H12ZM36 32V42H39V32H36Z" fill="#EF6C00"/>
<path d="M43 34H5V29H43V34Z" fill="#FFA000"/>
<path d="M15 6H9V29H15V6Z" fill="#673AB7"/>
<path d="M11 6H9V29H11V6Z" fill="#4527A0"/>
<path d="M23 6H17V29H23V6Z" fill="#4CAF50"/>
<path d="M19 6H17V29H19V6Z" fill="#388E3C"/>
<path d="M29 12H23V29H29V12Z" fill="#F44336"/>
<path d="M25 12H23V29H25V12Z" fill="#D32F2F"/>
<path d="M15 11H9V9H15V11ZM15 24H9V26H15V24Z" fill="#9575CD"/>
<path d="M11 11H9V9H11V11ZM11 24H9V26H11V24Z" fill="#7E57C2"/>
<path d="M23 11H17V9H23V11ZM23 24H17V26H23V24Z" fill="#81C784"/>
<path d="M19 11H17V9H19V11ZM19 24H17V26H19V24Z" fill="#4CAF50"/>
<path d="M29 17H23V15H29V17ZM29 24H23V26H29V24Z" fill="#FF8A80"/>
<path d="M25 17H23V15H25V17ZM25 24H23V26H25V24Z" fill="#FF5252"/>
<path d="M40 27L34 29L29 13L35 11L40 27Z" fill="#00BCD4"/>
<path d="M30.974 12.342L29 13L34 29L35.976 28.341L30.974 12.342Z" fill="#0097A7"/>
<path d="M33.119 26.181L32.52 24.264L38.507 22.223L39.106 24.14L33.119 26.181ZM29.823 15.633L30.422 17.55L36.397 15.469L35.798 13.552L29.823 15.633Z" fill="#4DD0E1"/>
<path d="M30.422 17.55L30.222 16.911L29.823 15.633L31.789 14.948L32.388 16.865L30.422 17.55ZM34.492 23.592L32.52 24.264L32.82 25.222L33.12 26.18L35.092 25.508L34.492 23.592Z" fill="#00BCD4"/>
</svg>
