<svg width="48" height="48" viewBox="0 0 48 48" fill="none" xmlns="http://www.w3.org/2000/svg">
<path d="M36.3 14L36.6 13.1C36.6 13.1 36.9 12.2 38.2 11.6C39.5 11 39.8 10.1 39.8 10.1C39.8 10.1 40.4 11.4 38.8 12.9L36.3 14ZM29 29L30 30L37 33V38H39V32L33 27L29 29ZM24 26C24 31 19 36 19 36L21 42H19L16 36C16 36 17.6 30.6 16 29C13 26 13 24 13 24" fill="#6D4C41"/>
<path d="M21 42L22 44H19V43L20 42H21ZM35 42L34 43V44H37L36 42H35ZM38.1 38H37L36 38.7L38.1 40.8L38.8 38.7L38.1 38ZM12 42L11 43V44H14L13 42H12Z" fill="#37474F"/>
<path d="M24 4C25.7 4 27 5.3 27 7C27 8.7 25.7 10 24 10C22.3 10 21 8.7 21 7C21 5.3 22.3 4 24 4Z" fill="#FFB74D"/>
<path d="M41 15V14C40.4 12.7 39 12 37 12C31 12 30 18 28 19C23.5 21.2 17 18 15 18C14.9 18 14.8 18 14.7 18C14.6 18 14.5 18 14.5 18C11.5 18 9 20.5 9 23.5C9 23.7 9 23.8 9 24C9 24 9 24.3 9.2 24.8C9.4 25.7 9.9 26.6 10.5 27.2C10.9 27.7 11.4 28.3 12 29C13.6 30.6 11 36 11 36V42H13L14 36C14 36 17.4 32.6 18.6 28.7C19.7 29.8 22.3 32 26 32C26 32 27.7 32 29.7 31.4L30 32L31 37L34 42H36L33 36C33 36 33 33.3 33 30C33 30 37 28 36 21C36 21 36 19 36 18C36 18 37 20 38 20C39 20 41 22 41 22C41 22 41 23 42 23C43 23 44 22 44 21C44 20 41 15 41 15Z" fill="#8D6E63"/>
<path d="M10 34C10 38 6 38 6 38C10 35 4 33 4 27C4 20.6 8.5 20 10.3 20C10 20.3 9.8 20.7 9.6 21.1C6.3 21.8 10 30.5 10 34ZM36 13C36 13 36 12 37 11C29.9 11.5 28 17.1 27 19.3C26 21.7 27 23.9 27 23.9C28 20.9 34 20.9 35 15.9C35.2 14.9 35.6 14.1 36 13.3V13ZM38.3 11C38.2 11.3 38.1 11.6 38 12C38 12 38 12.2 38.1 12.6C38.6 12.9 39.6 13.6 41 15L42 13C42 13 41.1 11.2 38.3 11Z" fill="#4E342E"/>
<path d="M28.5 14.6L26 13.8L24.8 11.7C24.5 10.9 23.8 10.2 22.9 10C21.6 9.70002 20.2 10.6 20 12L19 18C18.7 19.3 19.6 20.5 20.9 20.9L23 22.2L20.8 25.2C20.3 25.9 20.4 26.8 21.1 27.3C21.4 27.5 21.7 27.6 22 27.6C22.5 27.6 22.9 27.4 23.2 27L26.2 23C26.6 22.4 26.6 21.6 26.1 21L23.9 19.5C24 19.4 24 19.2 24 19L24.4 16.4L27.5 17.4C27.7 17.5 27.8 17.5 28 17.5C28.6 17.5 29.2 17.1 29.4 16.5C29.7 15.7 29.3 14.8 28.5 14.6Z" fill="#2196F3"/>
<path d="M23.8 19.5C23.9 19.3 23.9 19.6 23.9 19.6L24.4 16.3L22 12.6C22 12.6 22 12.6 22 12.5L22.6 18.6L23.8 19.5Z" fill="#1976D2"/>
<path d="M44 21.3C43.9 21.1 43.7 21 43.5 21C43.2 21 43 21.2 43 21.5C43 21.7 43 22.3 43 22.7C43.5 22.4 43.9 21.9 44 21.3Z" fill="#37474F"/>
<path d="M41 16.5C41 16.8 40.8 17 40.5 17C40.2 17 40 16.8 40 16.5C40 16.2 40.2 16 40.5 16C40.8 16 41 16.2 41 16.5Z" fill="#263238"/>
<path d="M36 14V13C36 13 36 12 37 11C38 10 38 9 38 9C38 9 39 10 38 12C38 12 38 13 39 14H36Z" fill="#8D6E63"/>
<path d="M28 17.5C27.8 17.5 27.7 17.5 27.5 17.4L24 16.2L22 12.6C21.6 11.9 21.9 11 22.6 10.6C23.3 10.2 24.2 10.5 24.6 11.2L26 13.8L28.4 14.6C29.2 14.9 29.6 15.7 29.3 16.5C29.2 17.1 28.6 17.5 28 17.5Z" fill="#2196F3"/>
</svg>
