<svg width="48" height="48" viewBox="0 0 48 48" fill="none" xmlns="http://www.w3.org/2000/svg">
<path d="M41 42H7C4.794 42 3 40.206 3 38V10C3 7.794 4.794 6 7 6H41C43.206 6 45 7.794 45 10V38C45 40.206 43.206 42 41 42Z" fill="#FFC107"/>
<path d="M41 10H7V38H41V10Z" fill="#388E3C"/>
<path d="M36 36H28V38H36V36Z" fill="white"/>
<path d="M24 23C25.6569 23 27 21.6569 27 20C27 18.3431 25.6569 17 24 17C22.3431 17 21 18.3431 21 20C21 21.6569 22.3431 23 24 23Z" fill="white"/>
<path d="M16 25C17.1046 25 18 24.1046 18 23C18 21.8954 17.1046 21 16 21C14.8954 21 14 21.8954 14 23C14 24.1046 14.8954 25 16 25Z" fill="#A5D6A7"/>
<path d="M41 10H7V12H41V10Z" fill="#2E7D32"/>
<path d="M36 38H28L32 42H40L36 38Z" fill="#FFAB00"/>
<path d="M32 25C33.1046 25 34 24.1046 34 23C34 21.8954 33.1046 21 32 21C30.8954 21 30 21.8954 30 23C30 24.1046 30.8954 25 32 25Z" fill="#A5D6A7"/>
<path d="M37 28.688C37 28.243 36.837 27.814 36.532 27.489C35.839 26.75 34.363 26 32 26C29.637 26 28.161 26.75 27.468 27.489C27.163 27.814 27 28.242 27 28.688V30H37V28.688Z" fill="#A5D6A7"/>
<path d="M21 28.688C21 28.243 20.837 27.814 20.532 27.489C19.839 26.75 18.363 26 16 26C13.637 26 12.161 26.75 11.468 27.489C11.163 27.814 11 28.242 11 28.688V30H21V28.688Z" fill="#A5D6A7"/>
<path d="M30 27.742C30 27.208 29.804 26.694 29.438 26.304C28.607 25.417 26.835 24 24 24C21.165 24 19.393 25.417 18.562 26.303C18.196 26.693 18 27.207 18 27.742V30H30V27.742Z" fill="white"/>
</svg>
