<svg width="48" height="48" viewBox="0 0 48 48" fill="none" xmlns="http://www.w3.org/2000/svg">
<path d="M27 18H21C20.7 18 20.5 18 20.3 17.9L10.3 13.9C9.29997 13.5 8.79997 12.3 9.19997 11.3C9.59997 10.3 10.8 9.8 11.8 10.2L21.4 14.1H26.6L36.2 10.2C37.2 9.8 38.4 10.3 38.8 11.3C39.2 12.3 38.7 13.5 37.7 13.9L27.7 17.9C27.5 18 27.3 18 27 18Z" fill="#FFBA57"/>
<path d="M24 4C26.2 4 28 5.8 28 8C28 10.2 26.2 12 24 12C21.8 12 20 10.2 20 8C20 5.8 21.8 4 24 4Z" fill="#FFB74D"/>
<path d="M12 44C11.7 44 11.3 43.8 11.1 43.5C10.8 43 11 42.4 11.5 42.1C11.7 42 17 39 24 39C31 39 36.3 42 36.5 42.1C37 42.4 37.1 43 36.9 43.5C36.6 44 36 44.1 35.5 43.9C35.5 43.9 30.5 41 24 41C17.5 41 12.6 43.8 12.5 43.9C12.3 44 12.2 44 12 44Z" fill="#E4D8C4"/>
<path d="M18 38C17.6 38 17.2 37.8 17.1 37.4C16.9 36.9 17.2 36.3 17.7 36.1C17.8 36.1 20.6 35 24.1 35C27.6 35 30.3 36 30.5 36.1C31 36.3 31.3 36.9 31.1 37.4C30.9 37.9 30.3 38.2 29.8 38C29.8 38 27.2 37.1 24.1 37.1C21 37.1 18.5 38 18.5 38C18.2 38 18.1 38 18 38Z" fill="#E4D8C4"/>
<path d="M26.6 14H21.4L20 17.8V25H28V17.8L26.6 14Z" fill="#7E8CCF"/>
<path d="M36.4 32.6L28 22H20L11.6 32.6C10.8 33.4 10.8 34.6 11.6 35.4C12.4 36.2 13.6 36.2 14.4 35.4L24 26L33.6 35.4C34 35.8 34.5 36 35 36C35.5 36 36 35.8 36.4 35.4C37.2 34.6 37.2 33.4 36.4 32.6Z" fill="#FF754C"/>
<path d="M14.9 34.9L24 24L33.1 35L24 26L14.9 34.9Z" fill="#E64A19"/>
</svg>
