<svg width="48" height="48" viewBox="0 0 48 48" fill="none" xmlns="http://www.w3.org/2000/svg">
<path d="M45 26C45 29.1 41 30 41 30C41 30 10 38 7 38C4 38 3 36.2 3 34V14C3 11.8 4.8 10 7 10H41C43.2 10 45 11.8 45 14V26Z" fill="#673AB7"/>
<path d="M16 7H23V39H16V7Z" fill="#FFC107"/>
<path d="M25 7H32V37H25V7Z" fill="#FFC107"/>
<path d="M34 7H41V35H34V7Z" fill="#FFC107"/>
<path d="M7 7H14V41H7V7Z" fill="#FFC107"/>
<path d="M12 12.5C12 13.3 11.3 14 10.5 14C9.7 14 9 13.3 9 12.5C9 11.7 9.7 11 10.5 11C11.3 11 12 11.7 12 12.5Z" fill="#EF6C00"/>
<path d="M21 12.5C21 13.3 20.3 14 19.5 14C18.7 14 18 13.3 18 12.5C18 11.7 18.7 11 19.5 11C20.3 11 21 11.7 21 12.5Z" fill="#EF6C00"/>
<path d="M30 12.5C30 13.3 29.3 14 28.5 14C27.7 14 27 13.3 27 12.5C27 11.7 27.7 11 28.5 11C29.3 11 30 11.7 30 12.5Z" fill="#EF6C00"/>
<path d="M39 12.5C39 13.3 38.3 14 37.5 14C36.7 14 36 13.3 36 12.5C36 11.7 36.7 11 37.5 11C38.3 11 39 11.7 39 12.5Z" fill="#EF6C00"/>
<path d="M39 27.5C39 28.3 38.3 29 37.5 29C36.7 29 36 28.3 36 27.5C36 26.7 36.7 26 37.5 26C38.3 26 39 26.7 39 27.5Z" fill="#EF6C00"/>
<path d="M12 33.5C12 34.3 11.3 35 10.5 35C9.7 35 9 34.3 9 33.5C9 32.7 9.7 32 10.5 32C11.3 32 12 32.7 12 33.5Z" fill="#EF6C00"/>
<path d="M21 31.5C21 32.3 20.3 33 19.5 33C18.7 33 18 32.3 18 31.5C18 30.7 18.7 30 19.5 30C20.3 30 21 30.7 21 31.5Z" fill="#EF6C00"/>
<path d="M44 42.5C43.7 42.5 43.3 42.4 43 42.2L18 21.7C17.4 21.2 17.3 20.2 17.8 19.6C18.3 19 19.3 18.9 19.9 19.4L44.9 39.9C45.5 40.4 45.6 41.4 45.1 42C44.9 42.3 44.4 42.5 44 42.5Z" fill="#795548"/>
<path d="M23 20.5C23 22.4 21.4 24 19.5 24C17.6 24 16 22.4 16 20.5C16 18.6 17.6 17 19.5 17C21.4 17 23 18.6 23 20.5Z" fill="#5D4037"/>
</svg>
