<svg width="48" height="48" viewBox="0 0 48 48" fill="none" xmlns="http://www.w3.org/2000/svg">
<path d="M33 34H29V42H33V34Z" fill="#795548"/>
<path d="M18 31H14V42H18V31Z" fill="#795548"/>
<path d="M20 12.5C20 15 18 17 15.5 17C13 17 11 15 11 12.5C11 10 13 8 15.5 8C18 8 20 10 20 12.5Z" fill="#8BC34A"/>
<path d="M26 29C26 31.8 23.8 34 21 34C18.2 34 16 31.8 16 29C16 26.2 18.2 24 21 24C23.8 24 26 26.2 26 29Z" fill="#8BC34A"/>
<path d="M26 22.5C26 24.4 24.4 26 22.5 26C20.6 26 19 24.4 19 22.5C19 20.6 20.6 19 22.5 19C24.4 19 26 20.6 26 22.5Z" fill="#8BC34A"/>
<path d="M24 17C24 19.2 22.2 21 20 21C17.8 21 16 19.2 16 17C16 14.8 17.8 13 20 13C22.2 13 24 14.8 24 17Z" fill="#8BC34A"/>
<path d="M20 32.5C20 35 18 37 15.5 37C13 37 11 35 11 32.5C11 30 13 28 15.5 28C18 28 20 30 20 32.5Z" fill="#8BC34A"/>
<path d="M21 22.5C21 18.4 18.3 15 15 15C11.7 15 9 18.4 9 22.5C9 26.6 11.7 30 15 30C18.3 30 21 26.6 21 22.5Z" fill="#8BC34A"/>
<path d="M15 15C15 17.2 13.2 19 11 19C8.8 19 7 17.2 7 15C7 12.8 8.8 11 11 11C13.2 11 15 12.8 15 15Z" fill="#8BC34A"/>
<path d="M13 31C13 32.7 11.7 34 10 34C8.3 34 7 32.7 7 31C7 29.3 8.3 28 10 28C11.7 28 13 29.3 13 31Z" fill="#8BC34A"/>
<path d="M13 20.5C13 22.4 11.4 24 9.5 24C7.6 24 6 22.4 6 20.5C6 18.6 7.6 17 9.5 17C11.4 17 13 18.6 13 20.5Z" fill="#8BC34A"/>
<path d="M12 25.5C12 27.4 10.4 29 8.5 29C6.6 29 5 27.4 5 25.5C5 23.6 6.6 22 8.5 22C10.4 22 12 23.6 12 25.5Z" fill="#8BC34A"/>
<path d="M12 25.5C12 27.4 10.4 29 8.5 29C6.6 29 5 27.4 5 25.5C5 23.6 6.6 22 8.5 22C10.4 22 12 23.6 12 25.5Z" fill="#8BC34A"/>
<path d="M31 14L20 34C20 34 23 37 31 37C39 37 42 34 42 34L31 14Z" fill="#009688"/>
<path d="M31 9L22 24C22 24 23.5 27 31 27C38.5 27 40 24 40 24L31 9Z" fill="#009688"/>
<path d="M31 6L25 15C25 15 26 17 31 17C36 17 37 15 37 15L31 6Z" fill="#009688"/>
<path d="M31 29C34.5 29 36.9 28.4 38.5 27.6L37.5 25.8C36.2 26.5 34.1 27 31 27C27.9 27 25.8 26.5 24.5 25.9L23.5 27.7C25.1 28.4 27.5 29 31 29Z" fill="#00796B"/>
<path d="M36.4 18L35.4 16.3C34.4 16.7 33.1 17 31 17C28.9 17 27.6 16.7 26.6 16.3L25.6 18C26.8 18.6 28.5 19 31 19C33.5 19 35.2 18.5 36.4 18Z" fill="#00796B"/>
<path d="M11 18.5C10.4 18.5 10 18.1 10 17.5C10 15 12 13 14.5 13C15.1 13 15.5 13.4 15.5 14C15.5 14.6 15.1 15 14.5 15C13.1 15 12 16.1 12 17.5C12 18.1 11.6 18.5 11 18.5Z" fill="#689F38"/>
<path d="M20 25C19.4 25 19 24.6 19 24C19 22.3 17.7 21 16 21C15.4 21 15 20.6 15 20C15 19.4 15.4 19 16 19C18.8 19 21 21.2 21 24C21 24.6 20.6 25 20 25Z" fill="#689F38"/>
<path d="M13 31C12.4 31 12 30.6 12 30C12 28.1 13.6 26.5 15.5 26.5C16.1 26.5 16.5 26.9 16.5 27.5C16.5 28.1 16.1 28.5 15.5 28.5C14.7 28.5 14 29.2 14 30C14 30.6 13.6 31 13 31Z" fill="#689F38"/>
</svg>
