<svg width="48" height="48" viewBox="0 0 48 48" fill="none" xmlns="http://www.w3.org/2000/svg">
<path d="M29 15C37.284 15 44 21.044 44 28.5C44 32.038 42.475 35.248 40.001 37.656C40.005 37.977 40 41 44 43C44 43 43 44 40.5 44C35 44 33 41.5 33 41.5H33.001C31.725 41.817 30.388 42 29 42C20.716 42 14 35.956 14 28.5C14 21.044 20.716 15 29 15Z" fill="#2196F3"/>
<path d="M37 23H21V24.999H37V23Z" fill="#BBDEFB"/>
<path d="M37 28H21V29.999H37V28Z" fill="#BBDEFB"/>
<path d="M33 33H23V35H33V33Z" fill="#BBDEFB"/>
<path d="M34.874 23C35.59 21.288 36 19.439 36 17.5C36 17.176 35.968 16.86 35.947 16.541C33.869 15.562 31.509 15 29 15C20.716 15 14 21.044 14 28.5C14 30.133 14.338 31.69 14.928 33.139C15.169 32.987 15.393 32.832 15.591 32.676C16.73 32.891 17.873 33 19 33C22.748 33 26.209 31.881 29.021 30H29V28H31.476C32.395 27.092 33.204 26.088 33.867 25H33V23H34.874Z" fill="#1E88E5"/>
<path d="M21 24.999H33.867C34.256 24.36 34.585 23.69 34.874 23H21V24.999Z" fill="#64B5F6"/>
<path d="M21 29.999H29.011C29.9 29.405 30.722 28.736 31.469 28H21V29.999Z" fill="#64B5F6"/>
<path d="M19 4C10.716 4 4 10.044 4 17.5C4 21.038 5.525 24.248 7.999 26.656C7.995 26.977 8 30 4 32C4 32 5 33 7.5 33C13 33 15 30.5 15 30.5H14.999C16.275 30.817 17.612 31 19 31C27.284 31 34 24.956 34 17.5C34 10.044 27.284 4 19 4Z" fill="#FFB300"/>
<path d="M27 12.001H11V14H27V12.001Z" fill="#FFECB3"/>
<path d="M27 17H11V19H27V17Z" fill="#FFECB3"/>
<path d="M23 22H11V24H23V22Z" fill="#FFECB3"/>
</svg>
