<svg width="48" height="48" viewBox="0 0 48 48" fill="none" xmlns="http://www.w3.org/2000/svg">
<path d="M47 38H1V40H47V38Z" fill="#FF9800"/>
<path d="M29 18H25V34H29V18Z" fill="#FF9800"/>
<path d="M35 18H31V34H35V18Z" fill="#FF9800"/>
<path d="M41 18H37V34H41V18Z" fill="#FF9800"/>
<path d="M23 18H19V34H23V18Z" fill="#FF9800"/>
<path d="M17 18H13V34H17V18Z" fill="#FF9800"/>
<path d="M11 18H7V34H11V18Z" fill="#FF9800"/>
<path d="M43 16H5V13L24 4L43 13V16Z" fill="#FF9800"/>
<path d="M43 34H5V36H43V34Z" fill="#FF9800"/>
<path d="M29 16H25V18H29V16Z" fill="#EF6C00"/>
<path d="M35 16H31V18H35V16Z" fill="#EF6C00"/>
<path d="M41 16H37V18H41V16Z" fill="#EF6C00"/>
<path d="M23 16H19V18H23V16Z" fill="#EF6C00"/>
<path d="M17 16H13V18H17V16Z" fill="#EF6C00"/>
<path d="M11 16H7V18H11V16Z" fill="#EF6C00"/>
<path d="M45 36H3V38H45V36Z" fill="#EF6C00"/>
<path d="M24 13C25.1046 13 26 12.1046 26 11C26 9.89543 25.1046 9 24 9C22.8954 9 22 9.89543 22 11C22 12.1046 22.8954 13 24 13Z" fill="#EF6C00"/>
</svg>
