<svg width="48" height="48" viewBox="0 0 48 48" fill="none" xmlns="http://www.w3.org/2000/svg">
<path d="M35.5 22.001C37.986 22.001 40 24.015 40 26.501C40 28.987 37.986 31.001 35.5 31.001C33.014 31.001 31 28.987 31 26.501C31 24.015 33.014 22.001 35.5 22.001Z" fill="#FFBA57"/>
<path d="M9.827 27.821L19.279 23.524L21.872 29.277L9.002 37H33.29L21.664 19.892C21.121 19.076 20.063 18.773 19.173 19.181L8.173 24.181C7.167 24.638 6.723 25.824 7.18 26.829C7.637 27.833 8.825 28.278 9.827 27.821Z" fill="#FFBA57"/>
<path d="M44 36.001C41 36.001 40 34.001 40 34.001C40 34.001 39 36.001 36 36.001C33 36.001 32 34.001 32 34.001C32 34.001 31 36.001 28 36.001C25 36.001 24 34.001 24 34.001C24 34.001 23 36.001 20 36.001C17 36.001 16 34.001 16 34.001C16 34.001 15 36.001 12 36.001C9 36.001 8 34.001 8 34.001C8 34.001 7 36.001 4 36.001V44.001H44V36.001Z" fill="#7E8CCF"/>
<path d="M44 38.001C41 38.001 40 36.001 40 36.001C40 36.001 39 38.001 36 38.001C33 38.001 32 36.001 32 36.001C32 36.001 31 38.001 28 38.001C25 38.001 24 36.001 24 36.001C24 36.001 23 38.001 20 38.001C17 38.001 16 36.001 16 36.001C16 36.001 15 38.001 12 38.001C9 38.001 8 36.001 8 36.001C8 36.001 7 38.001 4 38.001V44.001H44V38.001Z" fill="#C5CAE9"/>
</svg>
