<svg width="48" height="48" viewBox="0 0 48 48" fill="none" xmlns="http://www.w3.org/2000/svg">
<path d="M44 24C44 35 35 44 24 44C13 44 4 35 4 24C4 13 13 4 24 4C35 4 44 13 44 24Z" fill="#E0DDDC"/>
<path d="M9.33286 17.7232L8.70026 19.6206L16.5745 22.2459L17.2071 20.3485L9.33286 17.7232Z" fill="#BFBFBF"/>
<path d="M25 8H23V16H25V8Z" fill="#BFBFBF"/>
<path d="M18.7211 28.6167L13.6179 36.2721L15.2821 37.3815L20.3853 29.7261L18.7211 28.6167Z" fill="#BFBFBF"/>
<path d="M29.282 28.6192L27.6178 29.7286L32.721 37.384L34.3852 36.2746L29.282 28.6192Z" fill="#BFBFBF"/>
<path d="M38.6871 17.7205L27.7759 21.3534L28.4077 23.251L39.3189 19.6181L38.6871 17.7205Z" fill="#BFBFBF"/>
<path d="M16 21L24 15L32 21L29 30H19L16 21ZM30 4.9C28.1 4.3 26.1 4 24 4C21.9 4 19.9 4.3 18 4.9L16.4 7.8L24 10L31 8L30 4.9ZM42 26L44 24C44 19 42.2 14.5 39.2 11L37 11.3V19.4L42 26ZM32.2 34.8L27.9 41.6L30.2 43C34.7 41.5 38.5 38.5 40.9 34.6L40.1 31.7L32.2 34.8ZM11.1 19.4L11 11.3L8.8 11C5.8 14.5 4 19 4 24L6 26L11.1 19.4ZM7.9 31.8L7.1 34.7C9.6 38.6 13.3 41.6 17.8 43.1L20 41.5L15.9 34.9L7.9 31.8Z" fill="#546E7A"/>
</svg>
