<svg width="48" height="48" viewBox="0 0 48 48" fill="none" xmlns="http://www.w3.org/2000/svg">
<path d="M6 22.67V42H42V18H39H33C33 18 15.193 18.643 6 22.67Z" fill="#8BC34A"/>
<path d="M6 29.001V34C20 18 34.85 18.081 35 18C28 18 18 19 6 29.001Z" fill="#689F38"/>
<path d="M35 42C38 23 42 18 42 18H39H35C32 19 18 24 8 42H12.11C20 28 28.161 22.244 38 18C28 24 21.517 37.435 20 42H24C25.88 36.596 31.104 23.804 40 18C35.735 24.692 32.825 37.297 32 42H35Z" fill="#689F38"/>
<path d="M39.2375 11.7101L35.5 10.1664L31.7625 11.7101L30.625 14.2289H30.8958V19.3747H40.1042V14.2289H40.375L39.2375 11.7101Z" fill="#F44336"/>
<path d="M33.0625 15.8539H37.9375V19.1039H33.0625V15.8539Z" fill="#FF8A80"/>
<path d="M34.4172 11.7914H36.5839V13.958H34.4172V11.7914Z" fill="white"/>
<path d="M37.6672 16.1253V18.8336H33.3339V16.1253H37.6672ZM38.2089 15.5836H32.7922V19.3753H38.2089V15.5836Z" fill="white"/>
<path d="M35.2297 15.8539H35.7714V19.3747H35.2297V15.8539Z" fill="white"/>
<path d="M37.4498 19.2665L35.4998 16.3415L33.5498 19.2665L33.1165 18.9415L35.2831 15.6915H35.7165L37.8831 18.9415L37.4498 19.2665Z" fill="white"/>
<path d="M39.5625 11.25L35.5 9.625V10.1667L39.2375 11.7104L39.5625 11.25Z" fill="#B71C1C"/>
<path d="M40.3758 14.5H40.9174L39.5633 11.25L39.2383 11.7104L40.3758 14.5Z" fill="#B71C1C"/>
<path d="M31.4375 11.25L35.5 9.625V10.1667L31.7625 11.7104L31.4375 11.25Z" fill="#B71C1C"/>
<path d="M30.6253 14.5H30.0836L31.4378 11.25L31.7628 11.7104L30.6253 14.5Z" fill="#B71C1C"/>
<path d="M34.9586 12.3336H36.042V13.417H34.9586V12.3336Z" fill="#4E342E"/>
<path d="M18.3327 9.6665H9.66602V18.3332H18.3327V9.6665Z" fill="#FF9800"/>
<path d="M13.9997 8.00002L7.99976 14L13.9997 20L19.9997 14L13.9997 8.00002Z" fill="#FF9800"/>
<path d="M10.3335 14.0002C10.3335 16.0258 11.9745 17.6668 14.0002 17.6668C16.0255 17.6668 17.6668 16.0258 17.6668 14.0002C17.6668 11.9745 16.0255 10.3335 14.0002 10.3335C11.9745 10.3335 10.3335 11.9745 10.3335 14.0002Z" fill="#FFEB3B"/>
</svg>
