<svg width="48" height="48" viewBox="0 0 48 48" fill="none" xmlns="http://www.w3.org/2000/svg">
<path d="M23 29.4C16.5 29.4 9 27.9 6 23.9V30L6.2 31C7.3 34.9 13.8 38 23 38C32.2 38 38.7 34.9 39.8 31L40 30V23.9C37.3 26.9 31.4 29.4 23 29.4Z" fill="#FFC107"/>
<path d="M41 18.4C41 22.8 33 26.4 23 26.4C13 26.4 5 22.8 5 18.4C5 14 13.1 10.4 23 10.4C32.9 10.4 41 14 41 18.4Z" fill="#455A64"/>
<path d="M40 20.9C40 25 32.4 28.4 23 28.4C13.6 28.4 6 25 6 20.9C6 16.8 13.6 13.4 23 13.4C32.4 13.4 40 16.7 40 20.9Z" fill="#ECEFF1"/>
<path d="M23 26.4C13 26.4 5 22.8 5 18.4C5 18.4 5 19.5 5 20.4C5 20.7 5 21 5 21.2C5 21.3 5 21.4 5 21.4C5 21.9 5.2 22.4 5.2 22.4C6.3 26.3 13.8 29.4 23 29.4C32.2 29.4 39.7 26.3 40.8 22.4C40.8 22.4 41 21.9 41 21.4C41 21.3 41 21.3 41 21.2C41 21 41 20.7 41 20.4C41 19.5 41 18.4 41 18.4C41 22.8 33 26.4 23 26.4Z" fill="#6C858E"/>
<path d="M40 28.4V30L39.8 31C38.9 34.3 32.3 38 23 38C13.7 38 7.1 34.3 6.2 31L6 30V28.4C5.5 28.8 5 29.5 5 30C5 30 5 32.4 5 33C5 33.6 5.2 34 5.2 34C6.3 37.9 13.8 41 23 41C32.2 41 39.7 37.9 40.8 34C40.8 34 41 33.6 41 33C41 32.4 41 30 41 30C41 29.5 40.5 28.8 40 28.4Z" fill="#6C858E"/>
<path d="M22 28.4H24V41H22V28.4Z" fill="#455A64"/>
<path d="M36 38L34 39V27.4L36 26.4V38Z" fill="#455A64"/>
<path d="M12 39L10 38V26.4L12 27.4V39Z" fill="#455A64"/>
<path d="M25 29.3C25 29.9 24 30.4 24 30.4H22C22 30.4 21 29.9 21 29.4V26.4C21.8 26.5 24.6 26.5 25 26.4V29.3Z" fill="#455A64"/>
<path d="M21.1 38C21.1 37.4 22 37 22 37H24C24 37 25 37.4 25 38V41C24.5 41.1 21.7 41.1 21 41L21.1 38Z" fill="#455A64"/>
<path d="M37 26.7C37 27.3 36 28.3 36 28.3L34 29.3C34 29.3 33 28.6 33 28.1V25C33.5 24.8 36 24 37 23.4V26.7Z" fill="#455A64"/>
<path d="M9 26.7C9 27.3 10 28.3 10 28.3L12 29.3C12 29.3 13 28.6 13 28.1V25C12.5 24.8 10 24 9 23.4V26.7Z" fill="#455A64"/>
<path d="M33 36.5C33 35.9 34 35 34 35L36 34C36 34 37 34.4 37 34.6V38C36.5 38.3 34 39.4 33 39.6V36.5Z" fill="#455A64"/>
<path d="M13 36.5C13 35.9 12 35 12 35L10 34C10 34 9 34.4 9 34.6V38C9.5 38.3 12 39.4 13 39.6V36.5Z" fill="#455A64"/>
<path d="M19 19.4C18.7 19.4 18.3 19.2 18.2 18.9C17.9 18.4 18 17.8 18.5 17.5L36.5 6.1C37 5.8 37.6 5.9 37.9 6.4C38.2 6.9 38.1 7.5 37.6 7.8L19.6 19.2C19.4 19.3 19.2 19.4 19 19.4Z" fill="#A1887F"/>
<path d="M20 22.4C19.6 22.4 19.2 22.1 19 21.7C18.8 21.2 19.1 20.6 19.6 20.4L41.6 13.4C42.1 13.2 42.7 13.5 42.9 14C43.1 14.5 42.8 15.1 42.2 15.3L20.2 22.3C20.2 22.4 20.1 22.4 20 22.4Z" fill="#A1887F"/>
</svg>
