<svg width="48" height="48" viewBox="0 0 48 48" fill="none" xmlns="http://www.w3.org/2000/svg">
<path d="M24 7C26.209 7 28 8.791 28 11C28 13.209 26.209 15 24 15C21.791 15 20 13.209 20 11C20 8.791 21.791 7 24 7Z" fill="#FFB74D"/>
<path d="M36.664 36.504L31 33V19H17V33L11.336 36.504C10.236 37.238 9.74601 38.606 10.129 39.869C10.512 41.135 11.678 42 13 42H22H26H35C36.322 42 37.488 41.135 37.871 39.869C38.254 38.605 37.764 37.238 36.664 36.504Z" fill="#FF754C"/>
<path d="M41.249 30.438L36.593 26.713L32.789 19.106C32.692 18.915 32.566 18.739 32.414 18.586C32.149 18.32 29.665 16 24 16C18.335 16 15.851 18.32 15.586 18.586C15.434 18.738 15.308 18.914 15.211 19.106L11.407 26.713L6.75098 30.438C5.88798 31.129 5.74798 32.387 6.43798 33.251C6.83298 33.742 7.41398 34 8.00098 34C8.43998 34 8.88098 33.855 9.24898 33.562L14.249 29.562C14.476 29.38 14.659 29.152 14.789 28.894L21 20H27L33.211 28.894C33.341 29.152 33.525 29.38 33.751 29.562L38.751 33.562C39.119 33.855 39.56 34 39.999 34C40.586 34 41.167 33.742 41.561 33.25C42.252 32.387 42.112 31.129 41.249 30.438Z" fill="#FFB74D"/>
<path d="M36.593 26.713L32.789 19.106C32.692 18.915 32.566 18.739 32.414 18.586C32.149 18.32 29.665 16 24 16C18.335 16 15.851 18.32 15.586 18.586C15.434 18.738 15.308 18.914 15.211 19.106L11.407 26.713L14.249 29.563C14.476 29.381 14.659 29.153 14.789 28.895L21 20H27L33.211 28.894C33.341 29.152 33.525 29.38 33.751 29.562L36.593 26.713Z" fill="#FF754C"/>
<path d="M33.751 29.563C33.524 29.381 33.341 29.153 33.211 28.895L31 25.729V21L33.872 29.658L33.751 29.563Z" fill="#E64A19"/>
<path d="M14.249 29.563C14.476 29.381 14.659 29.153 14.789 28.895L17 25.729V21L14.128 29.658L14.249 29.563Z" fill="#E64A19"/>
<path d="M29 37H21.5C20.125 37 19 38.125 19 39.5C19 40.875 20.125 42 21.5 42H29V37Z" fill="#FFB74D"/>
<path d="M21.5 37H31C31 37 24.143 35 21.5 35C18.857 35 17 37.019 17 39.5C17 40.425 17.282 41.284 17.762 42H21.5C20.125 42 19 40.875 19 39.5C19 38.125 20.125 37 21.5 37Z" fill="#E64A19"/>
</svg>
