<svg width="48" height="48" viewBox="0 0 48 48" fill="none" xmlns="http://www.w3.org/2000/svg">
<path d="M24 27L34 17L44 27L34 37L24 27Z" fill="#FF9800"/>
<path d="M27 20H41V34H27V20Z" fill="#FF9800"/>
<path d="M29 27C29 29.762 31.238 32 34 32C36.762 32 39 29.762 39 27C39 24.234 36.762 22 34 22C31.238 22 29 24.234 29 27Z" fill="#FFEB3B"/>
<path d="M19 24H16V31H19V24Z" fill="#795548"/>
<path d="M21 13.5C21 14.88 19.88 16 18.5 16C17.12 16 16 14.88 16 13.5C16 12.12 17.12 11 18.5 11C19.88 11 21 12.12 21 13.5Z" fill="#689F38"/>
<path d="M24 22C24 23.657 22.657 25 21 25C19.343 25 18 23.657 18 22C18 20.343 19.343 19 21 19C22.657 19 24 20.343 24 22Z" fill="#689F38"/>
<path d="M25 19C25 20.105 24.105 21 23 21C21.895 21 21 20.105 21 19C21 17.895 21.895 17 23 17C24.105 17 25 17.895 25 19Z" fill="#689F38"/>
<path d="M24 15.5C24 16.882 22.882 18 21.5 18C20.118 18 19 16.882 19 15.5C19 14.118 20.118 13 21.5 13C22.882 13 24 14.118 24 15.5Z" fill="#689F38"/>
<path d="M20 23.5C20 24.88 18.88 26 17.5 26C16.12 26 15 24.88 15 23.5C15 22.12 16.12 21 17.5 21C18.88 21 20 22.12 20 23.5Z" fill="#689F38"/>
<path d="M22 18.286C22 15.92 19.984 14 17.5 14C15.016 14 13 15.92 13 18.286C13 20.652 15.016 22.572 17.5 22.572C19.984 22.572 22 20.652 22 18.286Z" fill="#689F38"/>
<path d="M18 22C18 23.656 16.656 25 15 25C13.344 25 12 23.656 12 22C12 20.344 13.344 19 15 19C16.656 19 18 20.344 18 22Z" fill="#689F38"/>
<path d="M13 22H10V30H13V22Z" fill="#795548"/>
<path d="M14 9C14 10.656 12.656 12 11 12C9.344 12 8 10.656 8 9C8 7.344 9.344 6 11 6C12.656 6 14 7.344 14 9Z" fill="#8BC34A"/>
<path d="M10 11C10 12.656 8.656 14 7 14C5.344 14 4 12.656 4 11C4 9.344 5.344 8 7 8C8.656 8 10 9.344 10 11Z" fill="#8BC34A"/>
<path d="M18 11C18 12.656 16.656 14 15 14C13.344 14 12 12.656 12 11C12 9.344 13.344 8 15 8C16.656 8 18 9.344 18 11Z" fill="#8BC34A"/>
<path d="M9 16C9 17.656 7.656 19 6 19C4.344 19 3 17.656 3 16C3 14.344 4.344 13 6 13C7.656 13 9 14.344 9 16Z" fill="#8BC34A"/>
<path d="M20 15C20 16.656 18.656 18 17 18C15.344 18 14 16.656 14 15C14 13.344 15.344 12 17 12C18.656 12 20 13.344 20 15Z" fill="#8BC34A"/>
<path d="M10 20C10 21.656 8.656 23 7 23C5.344 23 4 21.656 4 20C4 18.344 5.344 17 7 17C8.656 17 10 18.344 10 20Z" fill="#8BC34A"/>
<path d="M19 19.5C19 21.435 17.435 23 15.5 23C13.565 23 12 21.435 12 19.5C12 17.565 13.565 16 15.5 16C17.435 16 19 17.565 19 19.5Z" fill="#8BC34A"/>
<path d="M14 22C14 23.658 12.658 25 11 25C9.342 25 8 23.658 8 22C8 20.342 9.342 19 11 19C12.658 19 14 20.342 14 22Z" fill="#8BC34A"/>
<path d="M17 15.5C17 19.093 14.764 22 12 22C9.236 22 7 19.093 7 15.5C7 11.907 9.236 9 12 9C14.764 9 17 11.907 17 15.5Z" fill="#8BC34A"/>
<path d="M45 39V31.3C42.146 29.203 37.667 28 32.615 28C23.991 28 17 31.94 17 36.8C17 37.561 17.19 38.296 17.512 39H45Z" fill="#689F38"/>
<path d="M3 33H45V39H3V33Z" fill="#80D8FF"/>
<path d="M45 37C45 37 42 37 35 37C27 37 23 29 14 29C8 29 5.094 31.125 3 33V42H45V37Z" fill="#7CB342"/>
<path d="M45 42V31.524C37.208 34.945 31.668 39.906 25.139 42H45Z" fill="#9CCC65"/>
</svg>
