<svg width="48" height="48" viewBox="0 0 48 48" fill="none" xmlns="http://www.w3.org/2000/svg">
<path d="M27.7 17.5C29 21.2 25 29.6 21.4 30.9L13 7.5C20.3 4.9 23.8 6.4 23.8 6.4L27.7 17.5Z" fill="#FF8F00"/>
<path d="M8 24.7C9.3 28.4 17.8 32.3 21.4 31L13 7.5C5.7 10.1 4 13.5 4 13.5L8 24.7Z" fill="#FFA000"/>
<path d="M22.9 15.8C22.9 15.8 20.7 14.2 17.7 14.9C17.7 14.9 18 12.8 19.7 12.8C22.1 12.7 22.9 15.8 22.9 15.8Z" fill="#693D14"/>
<path d="M18.5 22.7C21.9 21.5 24.1 22.7 24.1 22.7C24.1 22.7 21.3 19.1 17.7 20.4C14.1 21.7 14.2 26.2 14.2 26.2C14.2 26.2 15.1 23.9 18.5 22.7Z" fill="#693D14"/>
<path d="M10.6 20.2C10.6 20.2 11.2 17.5 14 16.2C14 16.2 12.4 14.8 11.1 15.9C9.3 17.3 10.6 20.2 10.6 20.2Z" fill="#693D14"/>
<path d="M40.4 33.9C39.2 38.1 30.2 43 26.1 41.8L33.7 15.4C41.9 17.8 44 21.4 44 21.4L40.4 33.9Z" fill="#FFB300"/>
<path d="M18.2 27.5C17 31.7 22 40.7 26.1 41.8L33.7 15.4C25.5 13.1 21.8 15 21.8 15L18.2 27.5Z" fill="#FFC107"/>
<path d="M38.3 28.1C38.3 28.1 36.8 26 33 25.5C33 25.5 34.5 24 36.3 24.5C38.4 25.1 38.3 28.1 38.3 28.1Z" fill="#694A14"/>
<path d="M23.1 23.7C23.1 23.7 25.5 22.7 28.9 24.3C28.9 24.3 28.4 22.2 26.6 21.7C24.6 21.1 23.1 23.7 23.1 23.7Z" fill="#694A14"/>
<path d="M28.9 32C24.6 30.8 23.3 27.9 23.3 27.9C23.3 27.9 23.5 33.5 28.1 34.8C32.7 36.1 35.8 31.5 35.8 31.5C35.8 31.5 33.2 33.3 28.9 32Z" fill="#694A14"/>
</svg>
